<svg width="26" height="26" viewBox="0 0 26 26" fill="none" xmlns="http://www.w3.org/2000/svg">
<path d="M21 1C19.9391 1 18.9217 1.42143 18.1716 2.17157C17.4214 2.92172 17 3.93913 17 5V21C17 22.0609 17.4214 23.0783 18.1716 23.8284C18.9217 24.5786 19.9391 25 21 25C22.0609 25 23.0783 24.5786 23.8284 23.8284C24.5786 23.0783 25 22.0609 25 21C25 19.9391 24.5786 18.9217 23.8284 18.1716C23.0783 17.4214 22.0609 17 21 17H5C3.93913 17 2.92172 17.4214 2.17157 18.1716C1.42143 18.9217 1 19.9391 1 21C1 22.0609 1.42143 23.0783 2.17157 23.8284C2.92172 24.5786 3.93913 25 5 25C6.06087 25 7.07828 24.5786 7.82843 23.8284C8.57857 23.0783 9 22.0609 9 21V5C9 3.93913 8.57857 2.92172 7.82843 2.17157C7.07828 1.42143 6.06087 1 5 1C3.93913 1 2.92172 1.42143 2.17157 2.17157C1.42143 2.92172 1 3.93913 1 5C1 6.06087 1.42143 7.07828 2.17157 7.82843C2.92172 8.57857 3.93913 9 5 9H21C22.0609 9 23.0783 8.57857 23.8284 7.82843C24.5786 7.07828 25 6.06087 25 5C25 3.93913 24.5786 2.92172 23.8284 2.17157C23.0783 1.42143 22.0609 1 21 1Z" stroke="white" stroke-width="2" stroke-linecap="round" stroke-linejoin="round"/>
</svg>
